<svg width="42" height="42" viewBox="0 0 42 42" fill="none" xmlns="http://www.w3.org/2000/svg">
<path d="M38.8662 20.7286C38.8662 30.7406 30.7497 38.8662 20.7287 38.8662C10.7077 38.8662 2.59109 30.7406 2.59109 20.7286C2.59109 10.7076 10.7077 2.59108 20.7287 2.59108C30.7497 2.59108 38.8662 10.7076 38.8662 20.7286Z" fill="#283544"/>
<path d="M29.2301 16.1391C29.1311 16.1968 26.775 17.4153 26.775 20.117C26.8861 23.1981 29.7483 24.2786 29.7974 24.2786C29.7483 24.3363 29.3653 25.7505 28.2307 27.233C27.3302 28.5099 26.3308 29.7974 24.8132 29.7974C23.3696 29.7974 22.8514 28.9464 21.1857 28.9464C19.3969 28.9464 18.8907 29.7974 17.5211 29.7974C16.0035 29.7974 14.93 28.441 13.9805 27.176C12.7469 25.5203 11.6984 22.9221 11.6614 20.4274C11.6365 19.1054 11.9085 17.806 12.5989 16.7022C13.5733 15.1613 15.3131 14.1152 17.2129 14.0807C18.6686 14.035 19.9642 15.012 20.8525 15.012C21.7039 15.012 23.2956 14.0807 25.0964 14.0807C25.8738 14.0815 27.9466 14.2997 29.2301 16.1391ZM20.7294 13.8168C20.4703 12.6095 21.1857 11.4023 21.8519 10.6322C22.7033 9.7009 24.0479 9.06879 25.2075 9.06879C25.2815 10.276 24.8124 11.46 23.9739 12.3224C23.2215 13.2537 21.926 13.9548 20.7294 13.8168Z" fill="white"/>
</svg>
