<svg width="24" height="24" viewBox="0 0 24 24" fill="none" xmlns="http://www.w3.org/2000/svg">
<path d="M9.40441 22.1675L8.92991 18.947C8.67308 18.8533 8.40633 18.7263 8.12966 18.566C7.85299 18.4058 7.60591 18.2399 7.38841 18.0682L4.38216 19.4107L1.76416 14.8232L4.46216 12.8287C4.43849 12.7031 4.42383 12.5649 4.41816 12.4142C4.41266 12.2637 4.40991 12.1257 4.40991 12C4.40991 11.8743 4.41266 11.7362 4.41816 11.5857C4.42383 11.4351 4.43849 11.2969 4.46216 11.1712L1.76416 9.17274L4.38216 4.59699L7.40016 5.93374C7.61516 5.76474 7.86074 5.60107 8.13691 5.44274C8.41291 5.28457 8.67724 5.16291 8.92991 5.07774L9.40441 1.82849H14.5954L15.0699 5.06099C15.3267 5.15732 15.5956 5.28182 15.8764 5.43449C16.1572 5.58716 16.4022 5.75357 16.6114 5.93374L19.6217 4.59699L22.2357 9.17274L19.5317 11.138C19.5555 11.2747 19.5708 11.4183 19.5777 11.569C19.5845 11.7197 19.5879 11.8633 19.5879 12C19.5879 12.1367 19.5842 12.2776 19.5767 12.4227C19.5692 12.5677 19.5513 12.7086 19.5232 12.8452L22.2274 14.8232L19.6074 19.4107L16.6037 18.0682C16.386 18.2399 16.1419 18.408 15.8714 18.5725C15.6007 18.737 15.3336 18.8618 15.0699 18.947L14.5954 22.1675H9.40441ZM10.9872 20.2735H12.9984L13.3544 17.5315C13.8972 17.3982 14.4098 17.1937 14.8922 16.918C15.3745 16.6423 15.8101 16.3034 16.1989 15.9012L18.7887 17.0095L19.7207 15.3305L17.4512 13.651C17.5233 13.379 17.5802 13.1062 17.6219 12.8327C17.6634 12.5594 17.6842 12.2818 17.6842 12C17.6842 11.7182 17.6662 11.4406 17.6302 11.1672C17.5942 10.8937 17.5345 10.621 17.4512 10.349L19.7287 8.66949L18.7887 6.99049L16.2049 8.10699C15.8272 7.68099 15.3993 7.32474 14.9212 7.03824C14.4432 6.75174 13.9209 6.56049 13.3544 6.46449L13.0127 3.72649H10.9934L10.6514 6.46249C10.0921 6.58066 9.57024 6.78024 9.08591 7.06124C8.60158 7.34224 8.16858 7.68807 7.78691 8.09874L5.20916 6.99049L4.27116 8.66949L6.53466 10.3347C6.46249 10.6122 6.40558 10.8873 6.36391 11.16C6.32241 11.4327 6.30166 11.7127 6.30166 12C6.30166 12.2818 6.32241 12.56 6.36391 12.8345C6.40558 13.1092 6.46249 13.384 6.53466 13.659L4.27116 15.3305L5.20916 17.0095L7.78691 15.895C8.17974 16.2973 8.61866 16.6383 9.10366 16.918C9.58866 17.1977 10.1046 17.4042 10.6514 17.5375L10.9872 20.2735ZM12.0027 15.3332C12.9248 15.3332 13.7109 15.0082 14.3609 14.3582C15.0109 13.7082 15.3359 12.9222 15.3359 12C15.3359 11.0778 15.0109 10.2917 14.3609 9.64174C13.7109 8.99174 12.9248 8.66674 12.0027 8.66674C11.0762 8.66674 10.289 8.99174 9.64116 9.64174C8.99333 10.2917 8.66941 11.0778 8.66941 12C8.66941 12.9222 8.99333 13.7082 9.64116 14.3582C10.289 15.0082 11.0762 15.3332 12.0027 15.3332Z" fill="black"/>
</svg>
