<svg width="24" height="24" viewBox="0 0 24 24" fill="none" xmlns="http://www.w3.org/2000/svg">
<path d="M8.05977 12.4475H15.9403V10.701H8.05977V12.4475ZM8.05977 15.5272H15.9403V13.7807H8.05977V15.5272ZM8.05977 18.6067H12.9403V16.8605H8.05977V18.6067ZM5.72652 22.1675C5.20985 22.1675 4.76502 21.981 4.39202 21.608C4.01902 21.235 3.83252 20.7902 3.83252 20.2735V3.72649C3.83252 3.20882 4.01902 2.76307 4.39202 2.38924C4.76502 2.01541 5.20985 1.82849 5.72652 1.82849H14.4218L20.1715 7.57824V20.2735C20.1715 20.7902 19.9846 21.235 19.6108 21.608C19.2369 21.981 18.7912 22.1675 18.2735 22.1675H5.72652ZM13.6163 8.33374V3.72649H5.72652V20.2735H18.2735V8.33374H13.6163Z" fill="black"/>
</svg>
