<svg width="24" height="24" viewBox="0 0 24 24" fill="none" xmlns="http://www.w3.org/2000/svg">
<g clip-path="url(#clip0_98_942)">
<path d="M13.9602 23.6185V21.7207C16.0615 21.7207 17.8476 20.9872 19.3184 19.52C20.7892 18.0528 21.5247 16.2662 21.5247 14.1602H23.4184C23.4184 15.4726 23.1694 16.702 22.6714 17.8485C22.1732 18.9948 21.4982 19.9941 20.6464 20.8462C19.7944 21.6982 18.7952 22.3732 17.6489 22.8712C16.5024 23.3694 15.2728 23.6185 13.9602 23.6185ZM13.9602 20.054V18.1602C15.0045 18.1602 15.9322 17.7547 16.7434 16.9435C17.5546 16.1323 17.9602 15.2046 17.9602 14.1602H19.8579C19.8579 15.7432 19.271 17.1213 18.0972 18.2945C16.9233 19.4675 15.5443 20.054 13.9602 20.054ZM5.4334 22.782C5.20657 22.782 4.97974 22.7381 4.7529 22.6502C4.52624 22.5622 4.33024 22.4366 4.1649 22.2732L0.148154 18.2565C-0.0150123 18.089 -0.140596 17.8927 -0.228596 17.6675C-0.316596 17.4423 -0.360596 17.2172 -0.360596 16.992C-0.360596 16.752 -0.317012 16.5247 -0.229846 16.3102C-0.142679 16.0957 -0.016679 15.9052 0.148154 15.7387L3.64965 12.2435C3.98949 11.904 4.40999 11.7329 4.91115 11.7302C5.41215 11.7276 5.83366 11.8959 6.17566 12.2352L7.61316 13.6727L8.45716 12.8345L7.01366 11.391C6.67449 11.0457 6.50491 10.6288 6.50491 10.1405C6.50491 9.65215 6.67449 9.23807 7.01366 8.89823L8.66491 7.24698C9.00891 6.90782 9.42907 6.73823 9.92541 6.73823C10.4217 6.73823 10.8408 6.90782 11.1827 7.24698L12.6262 8.69048L13.4642 7.84648L12.0267 6.40498C11.6875 6.06098 11.5179 5.64082 11.5179 5.14448C11.5179 4.64832 11.6875 4.22923 12.0267 3.88723L15.5219 0.389983C15.7004 0.209983 15.8991 0.0754002 16.1179 -0.0137665C16.3369 -0.1031 16.5621 -0.147766 16.7934 -0.147766C17.0247 -0.147766 17.2481 -0.105934 17.4634 -0.0222671C17.6787 0.0615662 17.8764 0.1934 18.0564 0.373233L22.0732 4.38998C22.2475 4.55948 22.3759 4.75348 22.4584 4.97198C22.5407 5.19032 22.5819 5.41998 22.5819 5.66098C22.5819 5.88682 22.5362 6.11198 22.4449 6.33648C22.3534 6.56098 22.2235 6.75732 22.0552 6.92548L18.5612 10.4217C18.154 10.8302 17.7341 11.0345 17.3014 11.0345C16.8686 11.0345 16.4492 10.8302 16.0434 10.4217L14.5999 8.97823L13.7619 9.82648L15.1994 11.2637C15.5386 11.6084 15.704 12.0294 15.6957 12.5267C15.6873 13.0241 15.5136 13.4423 15.1744 13.7815L13.5482 15.4077C13.2035 15.7471 12.7825 15.9167 12.2852 15.9167C11.7878 15.9167 11.3696 15.7471 11.0304 15.4077L9.59291 13.9662L8.74891 14.8087L10.1924 16.2517C10.5316 16.5922 10.6997 17.0136 10.6969 17.5157C10.6942 18.0179 10.5232 18.4387 10.1839 18.778L6.68266 22.2732C6.51599 22.4381 6.32532 22.5641 6.11065 22.6512C5.89615 22.7384 5.6704 22.782 5.4334 22.782ZM5.4364 21.0267L6.6464 19.8167L2.6299 15.8L1.41965 17.0102L5.4364 21.0267ZM7.72141 18.7417L8.93766 17.5315L4.9209 13.5147L3.7049 14.725L7.72141 18.7417ZM12.3017 14.1615L13.9279 12.5352L9.91141 8.51848L8.28516 10.1447L12.3017 14.1615ZM17.3147 9.15023L18.5249 7.93823L14.5082 3.92148L13.2982 5.13373L17.3147 9.15023ZM19.5999 6.86323L20.8102 5.65298L16.7934 1.63648L15.5832 2.84648L19.5999 6.86323Z" fill="black"/>
</g>
<defs>
<clipPath id="clip0_98_942">
<rect width="24" height="24" fill="white"/>
</clipPath>
</defs>
</svg>
