<svg width="24" height="24" viewBox="0 0 24 24" fill="none" xmlns="http://www.w3.org/2000/svg">
<path d="M11.999 21.0738C9.47702 21.0738 7.33444 20.1921 5.57127 18.4288C3.80794 16.6656 2.92627 14.523 2.92627 12.001C2.92627 9.47901 3.80802 7.33509 5.57152 5.56926C7.33485 3.80326 9.47769 2.92026 12 2.92026C12.1574 2.92026 12.3195 2.92484 12.4865 2.93401C12.6537 2.94317 12.8484 2.95884 13.0708 2.98101C12.4829 3.51367 12.0208 4.16059 11.6843 4.92176C11.3479 5.68309 11.1798 6.48934 11.1798 7.34051C11.1798 8.86434 11.7139 10.1596 12.782 11.2263C13.8502 12.2929 15.1473 12.8263 16.6733 12.8263C17.5248 12.8263 18.3308 12.6674 19.0913 12.3498C19.8518 12.0319 20.4964 11.5944 21.025 11.0373C21.0432 11.2374 21.0569 11.4114 21.066 11.5593C21.0752 11.7071 21.0798 11.8519 21.0798 11.9938C21.0798 14.5153 20.1968 16.6589 18.4308 18.4248C16.6649 20.1908 14.521 21.0738 11.999 21.0738ZM12 19.18C13.6124 19.18 15.0364 18.7034 16.272 17.7503C17.5079 16.7973 18.3278 15.6458 18.7318 14.2958C18.3774 14.4324 18.0014 14.535 17.6035 14.6035C17.2059 14.672 16.8114 14.7023 16.4203 14.6943C14.4759 14.6371 12.8197 13.9288 11.4515 12.5693C10.0835 11.2099 9.36827 9.54476 9.30577 7.57376C9.30177 7.23359 9.33027 6.87201 9.39127 6.48901C9.4521 6.10601 9.56269 5.68242 9.72302 5.21826C8.29919 5.70409 7.12602 6.57318 6.20352 7.82551C5.28119 9.07801 4.82002 10.4695 4.82002 12C4.82002 13.9928 5.51852 15.6877 6.91552 17.0845C8.31235 18.4815 10.0072 19.18 12 19.18Z" fill="black"/>
</svg>
