<svg width="24" height="24" viewBox="0 0 24 24" fill="none" xmlns="http://www.w3.org/2000/svg">
<g clip-path="url(#clip0_98_952)">
<path d="M12.0007 15.1023C12.8601 15.1023 13.5925 14.7997 14.198 14.1945C14.8035 13.5892 15.1062 12.8574 15.1062 11.9993C15.1062 11.1399 14.8032 10.4075 14.1972 9.802C13.5912 9.19651 12.8586 8.89375 11.9992 8.89375C11.1399 8.89375 10.4081 9.19675 9.80398 9.80275C9.19981 10.4088 8.89773 11.1414 8.89773 12.0008C8.89773 12.8601 9.20031 13.5918 9.80548 14.196C10.4108 14.8002 11.1426 15.1023 12.0007 15.1023ZM12 17C10.6166 17 9.43748 16.5125 8.46247 15.5375C7.48747 14.5625 6.99997 13.3833 6.99997 12C6.99997 10.6167 7.48747 9.4375 8.46247 8.4625C9.43748 7.4875 10.6166 7 12 7C13.3833 7 14.5625 7.4875 15.5375 8.4625C16.5125 9.4375 17 10.6167 17 12C17 13.3833 16.5125 14.5625 15.5375 15.5375C14.5625 16.5125 13.3833 17 12 17ZM5.11347 12.947H0.886475V11.053H5.11347V12.947ZM23.1135 12.947H18.8865V11.053H23.1135V12.947ZM11.053 5.1135V0.886505H12.947V5.1135H11.053ZM11.053 23.1135V18.8865H12.947V23.1135H11.053ZM6.49398 7.784L3.83222 5.19975L5.17722 3.80725L7.74873 6.45475L6.49398 7.784ZM18.8392 20.176L16.2262 17.5163L17.5167 16.2073L20.1677 18.7965L18.8392 20.176ZM16.2072 6.48325L18.8002 3.83225L20.1927 5.16075L17.562 7.7655L16.2072 6.48325ZM3.82397 18.8228L6.46697 16.2095L7.79272 17.5168L5.20347 20.1678L3.82397 18.8228Z" fill="black"/>
</g>
<defs>
<clipPath id="clip0_98_952">
<rect width="24" height="24" fill="white"/>
</clipPath>
</defs>
</svg>
