<svg width="24" height="24" viewBox="0 0 24 24" fill="none" xmlns="http://www.w3.org/2000/svg">
<path d="M4.42163 20.8913C4.02446 21.0486 3.65438 21.0042 3.31138 20.758C2.96821 20.5117 2.79663 20.1757 2.79663 19.75V5.75002C2.79663 5.48952 2.87205 5.25802 3.02288 5.05552C3.17388 4.85302 3.37763 4.7041 3.63413 4.60877L8.99988 2.79077L14.9999 4.89077L19.5781 3.10877C19.9753 2.95144 20.3454 2.99585 20.6884 3.24202C21.0315 3.48835 21.2031 3.82435 21.2031 4.25002V12.5853C20.9213 12.1661 20.5856 11.7892 20.1961 11.4545C19.8066 11.12 19.384 10.8381 18.9281 10.6088V5.80752L15.9999 6.93377V9.92227C15.6499 9.93027 15.3082 9.96644 14.9749 10.0308C14.6415 10.0951 14.3165 10.1876 13.9999 10.3083V6.93377L9.99988 5.53377V18.7283L4.42163 20.8913ZM5.07163 18.1925L7.99988 17.0663V5.53377L5.07163 6.50377V18.1925ZM16.1374 17.9163C16.6642 17.9163 17.1031 17.7566 17.4541 17.4373C17.8053 17.1179 17.9872 16.6568 17.9999 16.0538C18.0125 15.5269 17.837 15.0849 17.4731 14.7275C17.1095 14.37 16.6642 14.1913 16.1374 14.1913C15.6105 14.1913 15.1685 14.37 14.8111 14.7275C14.4536 15.0849 14.2749 15.5269 14.2749 16.0538C14.2749 16.5806 14.4536 17.0228 14.8111 17.3803C15.1685 17.7376 15.6105 17.9163 16.1374 17.9163ZM16.1374 20.1913C14.9975 20.1913 14.023 19.7867 13.2136 18.9775C12.4045 18.1682 11.9999 17.1936 11.9999 16.0538C11.9999 14.9139 12.4045 13.9394 13.2136 13.1303C14.023 12.3209 14.9975 11.9163 16.1374 11.9163C17.2772 11.9163 18.2518 12.3209 19.0611 13.1303C19.8703 13.9394 20.2749 14.9139 20.2749 16.0538C20.2749 16.4251 20.233 16.7757 20.1494 17.1055C20.0657 17.4352 19.9381 17.748 19.7666 18.044L22.3346 20.606L20.7374 22.2033L18.1874 19.6593C17.8834 19.8346 17.5605 19.9671 17.2189 20.0568C16.8772 20.1464 16.5167 20.1913 16.1374 20.1913Z" fill="black"/>
</svg>
