<svg width="24" height="24" viewBox="0 0 24 24" fill="none" xmlns="http://www.w3.org/2000/svg">
<path fill-rule="evenodd" clip-rule="evenodd" d="M10.5429 21.6623C10.9487 22.0668 11.4365 22.269 12.0061 22.269C12.5741 22.269 13.0605 22.0672 13.4651 21.6635C13.8696 21.26 14.0719 20.7733 14.0719 20.2033H9.93438C9.93438 20.7714 10.1372 21.2578 10.5429 21.6623ZM3.79688 16.9283V19.2033H20.2034V16.9283H18.2751V11.0598C17.8813 11.0798 17.4896 11.0503 17.1001 10.9713C16.7106 10.8923 16.344 10.7741 16.0001 10.6168V16.9283H8.00013V10.1315C8.00013 9.0315 8.39179 8.08984 9.17513 7.3065C9.95846 6.52317 10.9001 6.1315 12.0001 6.1315C12.1801 6.1315 12.3479 6.14342 12.5034 6.16725C12.6589 6.19109 12.8185 6.21884 12.9821 6.2505C12.9376 5.76684 12.968 5.2935 13.0731 4.8305C13.1785 4.36734 13.3547 3.92259 13.6019 3.49625V3.249C13.5659 2.84017 13.3951 2.49592 13.0896 2.21625C12.784 1.93659 12.4208 1.79675 12.0001 1.79675C11.5453 1.79675 11.1586 1.95592 10.8401 2.27425C10.5218 2.59275 10.3626 2.97942 10.3626 3.43425V4.0865C8.98146 4.43167 7.86329 5.16667 7.00813 6.2915C6.15279 7.41634 5.72513 8.69634 5.72513 10.1315V16.9283H3.79688Z" fill="black"/>
<path d="M18.1019 9.07175C17.2302 9.07175 16.4894 8.76675 15.8794 8.15675C15.2694 7.54659 14.9644 6.80575 14.9644 5.93425C14.9644 5.06275 15.2694 4.32192 15.8794 3.71175C16.4894 3.10175 17.2302 2.79675 18.1019 2.79675C18.9734 2.79675 19.7141 3.10175 20.3241 3.71175C20.9343 4.32192 21.2394 5.06275 21.2394 5.93425C21.2394 6.80575 20.9343 7.54659 20.3241 8.15675C19.7141 8.76675 18.9734 9.07175 18.1019 9.07175Z" fill="#34A853"/>
</svg>
