<svg width="24" height="24" viewBox="0 0 24 24" fill="none" xmlns="http://www.w3.org/2000/svg">
<path d="M21 11.2504H19.5V9.75042H21C21.1989 9.75042 21.3897 9.82944 21.5303 9.97009C21.671 10.1107 21.75 10.3015 21.75 10.5004C21.75 10.6993 21.671 10.8901 21.5303 11.0307C21.3897 11.1714 21.1989 11.2504 21 11.2504ZM3 9.75042C2.80109 9.75042 2.61032 9.82944 2.46967 9.97009C2.32902 10.1107 2.25 10.3015 2.25 10.5004C2.25 10.6993 2.32902 10.8901 2.46967 11.0307C2.61032 11.1714 2.80109 11.2504 3 11.2504H4.5V9.75042H3ZM19.5 15.0004C19.5 15.2535 19.4869 15.5039 19.4625 15.7504H21C21.1989 15.7504 21.3897 15.8294 21.5303 15.9701C21.671 16.1107 21.75 16.3015 21.75 16.5004C21.75 16.6993 21.671 16.8901 21.5303 17.0307C21.3897 17.1714 21.1989 17.2504 21 17.2504H19.155C18.6764 18.7732 17.7245 20.1036 16.4377 21.0481C15.1508 21.9926 13.5962 22.5019 12 22.5019C10.4038 22.5019 8.84916 21.9926 7.56233 21.0481C6.2755 20.1036 5.32356 18.7732 4.845 17.2504H3C2.80109 17.2504 2.61032 17.1714 2.46967 17.0307C2.32902 16.8901 2.25 16.6993 2.25 16.5004C2.25 16.3015 2.32902 16.1107 2.46967 15.9701C2.61032 15.8294 2.80109 15.7504 3 15.7504H4.5375C4.51313 15.5039 4.5 15.2535 4.5 15.0004V14.2504H3C2.80109 14.2504 2.61032 14.1714 2.46967 14.0307C2.32902 13.8901 2.25 13.6993 2.25 13.5004C2.25 13.3015 2.32902 13.1107 2.46967 12.9701C2.61032 12.8294 2.80109 12.7504 3 12.7504H4.5V11.2504H19.5V12.7504H21C21.1989 12.7504 21.3897 12.8294 21.5303 12.9701C21.671 13.1107 21.75 13.3015 21.75 13.5004C21.75 13.6993 21.671 13.8901 21.5303 14.0307C21.3897 14.1714 21.1989 14.2504 21 14.2504H19.5V15.0004ZM12.75 13.5004C12.75 13.3015 12.671 13.1107 12.5303 12.9701C12.3897 12.8294 12.1989 12.7504 12 12.7504C11.8011 12.7504 11.6103 12.8294 11.4697 12.9701C11.329 13.1107 11.25 13.3015 11.25 13.5004V19.5004C11.25 19.6993 11.329 19.8901 11.4697 20.0308C11.6103 20.1714 11.8011 20.2504 12 20.2504C12.1989 20.2504 12.3897 20.1714 12.5303 20.0308C12.671 19.8901 12.75 19.6993 12.75 19.5004V13.5004ZM6.5475 5.35823C5.41006 6.55962 4.70316 8.10431 4.5375 9.75042H19.4625C19.2968 8.10431 18.5899 6.55962 17.4525 5.35823L19.2806 3.53104C19.4214 3.39031 19.5004 3.19944 19.5004 3.00042C19.5004 2.80139 19.4214 2.61052 19.2806 2.46979C19.1399 2.32906 18.949 2.25 18.75 2.25C18.551 2.25 18.3601 2.32906 18.2194 2.46979L16.3172 4.37292C15.0547 3.47987 13.5464 3.00031 12 3.00031C10.4536 3.00031 8.94527 3.47987 7.68281 4.37292L5.78062 2.46979C5.63989 2.32906 5.44902 2.25 5.25 2.25C5.05098 2.25 4.86011 2.32906 4.71938 2.46979C4.57864 2.61052 4.49958 2.80139 4.49958 3.00042C4.49958 3.19944 4.57864 3.39031 4.71938 3.53104L6.5475 5.35823Z" fill="black"/>
</svg>
