<svg width="24" height="24" viewBox="0 0 24 24" fill="none" xmlns="http://www.w3.org/2000/svg">
<path d="M10.8865 21.1675V19.2735H19.2675V11.8342C19.2675 9.84607 18.5609 8.16216 17.1475 6.78249C15.7342 5.40282 14.0204 4.71299 12.006 4.71299C9.98969 4.71299 8.27335 5.40341 6.85702 6.78424C5.44069 8.16507 4.73252 9.85041 4.73252 11.8402V18.1075H3.92627C3.3506 18.1075 2.85769 17.9045 2.44752 17.4985C2.03752 17.0923 1.83252 16.6008 1.83252 16.024V13.9402C1.83252 13.5874 1.92135 13.2555 2.09902 12.9445C2.27669 12.6337 2.52119 12.3819 2.83252 12.1892L2.88977 11.0835C2.99644 9.91299 3.31227 8.82582 3.83727 7.82199C4.36227 6.81799 5.0306 5.94441 5.84227 5.20124C6.65377 4.45807 7.58852 3.87682 8.64652 3.45749C9.70435 3.03816 10.822 2.82849 11.9995 2.82849C13.177 2.82849 14.2917 3.03816 15.3435 3.45749C16.3955 3.87682 17.3304 4.45524 18.1483 5.19274C18.9663 5.93024 19.6346 6.80099 20.1533 7.80499C20.6719 8.80882 20.9909 9.89732 21.1103 11.0705L21.1715 12.1512C21.4855 12.3146 21.7307 12.5483 21.907 12.8525C22.0834 13.1568 22.1715 13.4807 22.1715 13.824V16.138C22.1715 16.4932 22.0853 16.8306 21.9128 17.1502C21.7404 17.4699 21.4934 17.714 21.1715 17.8825V19.2795C21.1715 19.7965 20.9887 20.2404 20.623 20.6112C20.2575 20.9821 19.8164 21.1675 19.2995 21.1675H10.8865ZM9.05752 13.9667C8.81335 13.9667 8.60944 13.8843 8.44577 13.7195C8.28227 13.5547 8.20052 13.3504 8.20052 13.1067C8.20052 12.8631 8.2831 12.6597 8.44827 12.4967C8.61344 12.3337 8.8181 12.2522 9.06227 12.2522C9.30644 12.2522 9.51027 12.3345 9.67377 12.499C9.83727 12.6633 9.91902 12.867 9.91902 13.11C9.91902 13.3542 9.83644 13.558 9.67127 13.7215C9.5061 13.885 9.30152 13.9667 9.05752 13.9667ZM14.9378 13.9667C14.6936 13.9667 14.4898 13.8843 14.3263 13.7195C14.1628 13.5547 14.081 13.3504 14.081 13.1067C14.081 12.8631 14.1636 12.6597 14.3288 12.4967C14.4939 12.3337 14.6985 12.2522 14.9425 12.2522C15.1867 12.2522 15.3906 12.3345 15.5543 12.499C15.7178 12.6633 15.7995 12.867 15.7995 13.11C15.7995 13.3542 15.7169 13.558 15.5518 13.7215C15.3866 13.885 15.1819 13.9667 14.9378 13.9667ZM6.08477 12.3165C5.98144 10.5937 6.51694 9.12016 7.69127 7.89599C8.86577 6.67182 10.3167 6.05974 12.044 6.05974C13.4815 6.05974 14.7359 6.52749 15.8073 7.46299C16.8786 8.39849 17.5309 9.57716 17.7643 10.999C16.3138 10.9823 14.9786 10.5951 13.7588 9.83724C12.5391 9.07924 11.5896 8.05457 10.9103 6.76324C10.6334 8.04741 10.0659 9.17841 9.20752 10.1562C8.34919 11.1342 7.30827 11.8543 6.08477 12.3165Z" fill="black"/>
</svg>
